<?xml version="1.0" encoding="utf-8"?>
<!-- Generator: Adobe Illustrator 15.1.0, SVG Export Plug-In . SVG Version: 6.00 Build 0)  -->
<!DOCTYPE svg PUBLIC "-//W3C//DTD SVG 1.1//EN" "http://www.w3.org/Graphics/SVG/1.1/DTD/svg11.dtd">
<svg version="1.1" id="_x32_" xmlns="http://www.w3.org/2000/svg" xmlns:xlink="http://www.w3.org/1999/xlink" x="0px" y="0px"
	 width="512px" height="512px" viewBox="0 0 512 512" style="enable-background:new 0 0 512 512;" xml:space="preserve">
<style type="text/css">
<![CDATA[
	.st0{fill:#000000;}
]]>
</style>
<g>
	<path class="st0" d="M263.891,400.627c0-4.781-1.766-9.297-5.813-12.297c-2.813-2.094-5.297-4.438-7.25-7.063
		c-1.109-1.5-2.078-3.047-2.875-4.609c-0.938-1.813-1.656-3.641-2.25-5.438c-0.656-2.063-1.125-4.094-1.469-6.094
		c-0.391-2.266-0.609-4.469-0.734-6.609c-0.141-2.422-0.172-4.75-0.172-6.969c0-2.063-0.016-4.047-0.016-5.875v-1.313v-9.156v-3.641
		c0,0,0-50.453,0-68.016c-0.016-5.719-0.938-10.141-2.75-14.047c-1.844-3.891-4.656-7.516-9.359-11.344
		c-3.141-2.531-7.125-5.094-12.047-7.656c-6.578-3.422-85.906,12.969-85.906,12.969c14.797,20.156,35.469,36.281,60.641,45.469
		v21.25c-85.219,23.969-147.109,97.719-147.109,201.813h80.906h56.125v-12.141c0-6.375,0.313-12.203,1-17.563
		c0.688-5.375,1.734-10.297,3.203-14.797c0.984-3.016,2.172-5.859,3.578-8.516c1.875-3.547,4.141-6.766,6.813-9.594
		c1.531-1.609,12.734-14.203,28.922-14.203C253.359,435.19,263.891,421.8,263.891,400.627z"/>
	<path class="st0" d="M309.422,307.94v-31.422c24.047-15.219,43.359-38.313,53.547-67.219l12.063-34.188
		c24.125-68.438-11.797-143.484-80.234-167.609c-65.891-23.219-137.875,9.219-164.672,72.75l-41.688,25.766
		c-3.344,2-5.688,4.734-5.313,8.734c0.406,4.125,3.906,6.266,6.75,8l20.641,12.328l-6.453,21.734c0,0,84.953,35.656,98.906,40.766
		c15.563,5.719,32.266,15.781,41.609,23.203c6.234,4.922,11.203,10.609,14.656,17.047c1.969,3.672,3.438,7.563,4.406,11.563
		c1.125,4.594,1.609,9.313,1.609,14.156c0,17.563,0,64.828,0,64.828v2.156c0,2.047-0.031,4-0.031,5.875
		c0,2.281,0.188,4.422,0.188,6.344c0,4.047,3.781,8.359,4.375,9.047c0.344,0.391,0.719,0.781,1.188,1.172
		c0.547,0.438,1.203,0.891,2.031,1.344c0.969,0.531,2.172,1.047,3.688,1.531c1.719,0.547,3.859,1.047,6.438,1.406
		c2,0.281,4.297,0.484,6.859,0.578c4.672-0.234,9.75,0.063,14.969,1.266c34.547,7.922,58.906,62.141,24.344,104.188
		c-34.563,42.078-84.938,27.484-105.484,15.453c-4.969-2.906-13.688-7.516-15.313-1.156c-0.672,2.641-1.156,5.672-1.516,9.078
		c-0.422,3.906-0.641,8.297-0.641,13.203v12.141h162.609h96.266C465.219,404.409,399.094,329.221,309.422,307.94z"/>
</g>
</svg>
