<?xml version="1.0" encoding="utf-8"?>
<!-- Generator: Adobe Illustrator 18.1.1, SVG Export Plug-In . SVG Version: 6.00 Build 0)  -->
<!DOCTYPE svg PUBLIC "-//W3C//DTD SVG 1.1//EN" "http://www.w3.org/Graphics/SVG/1.1/DTD/svg11.dtd">
<svg version="1.1" id="_x32_" xmlns="http://www.w3.org/2000/svg" xmlns:xlink="http://www.w3.org/1999/xlink" x="0px" y="0px"
	 viewBox="0 0 512 512" style="enable-background:new 0 0 512 512;" xml:space="preserve">
<style type="text/css">
	.st0{fill:#000000;}
</style>
<g>
	<path class="st0" d="M437.017,74.984C390.759,28.691,326.625-0.014,256.002,0c-70.623-0.014-134.76,28.691-181.019,74.984
		C28.693,121.243-0.005,185.374,0.005,256c-0.011,70.626,28.687,134.757,74.977,181.016
		c46.259,46.294,110.396,74.999,181.019,74.984c70.623,0.014,134.757-28.691,181.016-74.984
		c46.294-46.259,74.992-110.389,74.977-181.016C512.009,185.374,483.311,121.243,437.017,74.984z M256.002,468.529
		c-58.758-0.014-111.751-23.752-150.28-62.249C67.232,367.748,43.487,314.754,43.476,256
		c0.011-54.027,20.119-103.151,53.281-140.672L395.959,415.86C358.531,448.648,309.693,468.515,256.002,468.529z M415.239,396.672
		L116.037,96.14c37.429-32.787,86.274-52.655,139.965-52.669c58.757,0.014,111.748,23.752,150.273,62.249
		c38.497,38.526,62.235,91.527,62.249,150.28C468.51,310.028,448.402,359.144,415.239,396.672z"/>
	<path class="st0" d="M135.657,326.01c-8.844,0-16.022,5.71-16.022,12.757v0.368c0,7.061,7.175,12.771,16.022,12.771h144.224
		c8.848,0,16.026-5.71,16.026-12.771v-0.368c0-7.047-7.171-12.757-16.026-12.757H135.657z"/>
	<path class="st0" d="M112.758,308.534c0.867,0,1.447,0.071,2.027,0.29l1.306,0.651c0.796,0.51,1.666,1.302,2.678,2.462
		c0.725,0.87,1.521,1.882,2.536,2.972c1.376,1.592,3.117,3.474,5.579,4.924c1.231,0.799,2.682,1.38,4.203,1.811
		c1.521,0.438,3.187,0.651,4.928,0.651c2.026,0.078,3.983-0.29,5.724-0.863c1.521-0.51,2.823-1.161,4.054-1.96
		c2.101-1.38,3.622-3.043,4.927-4.493c0.941-1.082,1.741-2.101,2.537-2.971c1.086-1.302,2.027-2.172,2.897-2.682l1.376-0.573
		c0.435-0.148,1.015-0.22,1.812-0.22c0.87,0,1.52,0.071,2.031,0.29l1.376,0.651c0.725,0.51,1.592,1.302,2.608,2.462
		c0.725,0.87,1.596,1.882,2.536,2.972c1.447,1.592,3.187,3.474,5.649,4.924c1.232,0.799,2.611,1.38,4.133,1.811
		c1.592,0.438,3.258,0.651,4.998,0.651c2.027,0.078,3.912-0.29,5.65-0.863c1.521-0.51,2.897-1.161,4.057-1.96
		c2.102-1.38,3.623-3.043,4.928-4.493c0.941-1.082,1.811-2.101,2.536-2.971c1.157-1.302,2.098-2.172,2.968-2.682l1.306-0.573
		c0.506-0.148,1.086-0.22,1.811-0.22c0.94,0,1.521,0.071,2.101,0.29l1.302,0.651c0.799,0.51,1.666,1.302,2.681,2.462
		c0.725,0.87,1.522,1.882,2.463,2.972c1.45,1.592,3.191,3.474,5.652,4.924c1.231,0.799,2.608,1.38,4.203,1.811
		c1.521,0.438,3.187,0.651,4.924,0.651c2.031,0.078,3.912-0.29,5.653-0.863c1.521-0.51,2.898-1.161,4.128-1.96
		c2.031-1.38,3.623-3.043,4.854-4.493c1.015-1.082,1.811-2.101,2.536-2.971c1.161-1.302,2.101-2.172,2.972-2.682l1.376-0.573
		c0.435-0.148,1.015-0.22,1.811-0.22c0.87,0,1.522,0.071,2.027,0.29l1.38,0.651c0.722,0.51,1.592,1.302,2.607,2.462
		c0.726,0.87,1.592,1.882,2.537,2.972c1.376,1.592,3.187,3.474,5.65,4.924c1.231,0.799,2.607,1.38,4.128,1.811
		c1.522,0.438,3.191,0.729,4.928,0.729c2.027,0,3.912-0.368,5.65-0.941l-23.473-23.547l-0.074-0.078l-0.432-0.141
		c-1.521-0.439-3.191-0.65-4.928-0.65c-2.027,0-3.983,0.29-5.724,0.87c-1.522,0.502-2.898,1.231-4.058,2.024
		c-2.101,1.38-3.623,2.971-4.925,4.422c-0.944,1.082-1.74,2.102-2.536,2.972c-1.086,1.302-2.101,2.172-2.897,2.682l-1.38,0.58
		c-0.506,0.142-1.012,0.283-1.811,0.283c-0.866,0-1.522-0.141-2.027-0.361l-1.376-0.651c-0.796-0.509-1.596-1.302-2.607-2.462
		c-0.8-0.799-1.596-1.812-2.537-2.901c-1.45-1.662-3.187-3.473-5.653-4.995c-1.231-0.729-2.607-1.379-4.128-1.811
		c-1.595-0.439-3.262-0.65-4.998-0.65c-2.031,0-3.913,0.29-5.654,0.87c-1.521,0.502-2.897,1.231-4.054,2.024
		c-2.101,1.38-3.623,2.971-4.928,4.422c-0.94,1.082-1.811,2.102-2.536,2.972c-1.16,1.302-2.101,2.172-2.971,2.682l-1.302,0.58
		c-0.509,0.142-1.086,0.283-1.811,0.283c-0.941,0-1.522-0.141-2.101-0.361l-1.306-0.651c-0.796-0.509-1.666-1.302-2.682-2.462
		c-0.722-0.87-1.521-1.812-2.462-2.901c-1.447-1.662-3.187-3.473-5.65-4.995c-1.231-0.729-2.681-1.379-4.202-1.811
		c-1.522-0.439-3.188-0.65-4.928-0.65c-2.027,0-3.984,0.29-5.724,0.87c-1.521,0.502-2.823,1.231-4.058,2.024
		c-2.027,1.38-3.622,2.971-4.853,4.422c-1.012,1.082-1.812,2.102-2.537,2.972c-1.157,1.302-2.098,2.172-2.968,2.682l-1.376,0.58
		c-0.436,0.142-1.016,0.212-1.811,0.283c-0.871-0.07-1.522-0.141-2.031-0.361l-1.377-0.651c-0.725-0.509-1.592-1.302-2.607-2.462
		c-0.725-0.87-1.595-1.812-2.536-2.901c-1.377-1.662-3.188-3.473-5.65-4.995c-1.16-0.729-2.611-1.379-4.132-1.811
		c-1.522-0.439-3.188-0.65-4.925-0.65c-3.191,0-5.798,2.533-5.798,5.724C106.96,305.924,109.567,308.534,112.758,308.534z"/>
	<path class="st0" d="M123.116,286.87H247.08l-68.104-68.468c-34.994,7.974-61.22,30.501-65.277,55.068
		c-0.22,1.082-0.364,1.372-0.435,1.662c-0.145,0.29-0.145,0.58-0.145,1.741C113.119,283.396,116.741,286.87,123.116,286.87z
		 M189.843,241.588c2.536,0,4.638,2.03,4.638,4.634c0,2.54-2.102,4.571-4.638,4.571c-2.536,0-4.634-2.031-4.634-4.571
		C185.209,243.618,187.307,241.588,189.843,241.588z M173.761,227.748c2.536,0,4.564,2.101,4.564,4.641
		c0,2.533-2.027,4.564-4.564,4.564c-2.61,0-4.638-2.031-4.638-4.564C169.124,229.849,171.151,227.748,173.761,227.748z
		 M155.284,241.588c2.536,0,4.638,2.03,4.638,4.634c0,2.54-2.102,4.571-4.638,4.571c-2.533,0-4.564-2.031-4.564-4.571
		C150.72,243.618,152.751,241.588,155.284,241.588z"/>
	<path class="st0" d="M124.202,361.203c-9.488,0-12.824,7.684-12.824,17.243v1.74c0,9.496,7.754,17.243,17.246,17.243H284.03
		c8.841,0,16.157-6.665,17.172-15.282h40.789l-16.952-17.03h-27.385c-2.031-2.463-5.002-3.913-9.202-3.913H124.202z"/>
	<polygon class="st0" points="279.23,89.532 235.267,64.011 226.091,79.824 263.08,101.298 270.768,136.682 206.365,136.682 
		207.09,145.808 208.827,168.846 227.301,187.398 224.693,153.634 372.207,153.634 359.45,320.053 375.249,335.923 390.533,136.682 
		289.475,136.682 	"/>
</g>
</svg>
